<?xml version="1.0" encoding="utf-8"?>
<!-- Generator: Adobe Illustrator 16.0.0, SVG Export Plug-In . SVG Version: 6.00 Build 0)  -->
<!DOCTYPE svg PUBLIC "-//W3C//DTD SVG 1.1//EN" "http://www.w3.org/Graphics/SVG/1.1/DTD/svg11.dtd">
<svg version="1.1" id="Capa_1" xmlns="http://www.w3.org/2000/svg" xmlns:xlink="http://www.w3.org/1999/xlink" x="0px" y="0px"
	 width="23.629px" height="24px" viewBox="0 0 23.629 24" enable-background="new 0 0 23.629 24" xml:space="preserve">
<g>
	<g>
		<path fill="#B3B3B3" d="M11.819,24C5.302,24,0,18.617,0,12S5.302,0,11.819,0c6.512,0,11.81,5.383,11.81,12S18.331,24,11.819,24z
			 M11.819,0.96C5.831,0.96,0.96,5.912,0.96,12c0,6.087,4.871,11.04,10.859,11.04c5.982,0,10.85-4.953,10.85-11.04
			C22.669,5.912,17.802,0.96,11.819,0.96z"/>
	</g>
	<path fill-rule="evenodd" clip-rule="evenodd" fill="#B3B3B3" d="M11.752,14.197c-0.112,0.468-0.226,0.896-0.326,1.334
		c-0.205,0.873-0.625,1.635-1.159,2.341c-0.043,0.053-0.111,0.078-0.172,0.111c-0.03-0.064-0.093-0.123-0.098-0.192
		c-0.136-1.029-0.092-2.045,0.158-3.049c0.225-0.886,0.434-1.777,0.646-2.669c0.019-0.079-0.012-0.179-0.036-0.264
		c-0.18-0.622-0.239-1.237,0.072-1.839c0.211-0.4,0.506-0.694,0.983-0.707c0.54-0.014,0.944,0.346,0.905,0.896
		c-0.027,0.431-0.145,0.855-0.248,1.279c-0.084,0.361-0.215,0.711-0.297,1.072c-0.182,0.841,0.56,1.422,1.371,1.178
		c0.327-0.104,0.585-0.302,0.788-0.582c0.373-0.528,0.606-1.114,0.677-1.758c0.051-0.426,0.101-0.859,0.081-1.283
		c-0.052-1.051-0.616-1.645-1.544-1.949c-1.043-0.342-2.029-0.173-2.972,0.472c-0.88,0.604-1.394,2.14-0.979,3.111
		c0.079,0.182,0.184,0.353,0.281,0.529c0.137,0.253,0.092,0.807-0.129,0.979c-0.086,0.07-0.282,0.062-0.404,0.015
		c-0.472-0.188-0.74-0.583-0.905-1.05c-0.369-1.044-0.366-2.087,0.144-3.082c0.413-0.797,1.066-1.373,1.857-1.75
		c1.479-0.703,2.964-0.75,4.434,0.031c0.495,0.265,0.877,0.661,1.215,1.113c0.474,0.653,0.624,1.391,0.599,2.186
		c-0.034,0.955-0.244,1.852-0.736,2.674c-0.644,1.068-1.573,1.595-2.804,1.546c-0.488-0.02-0.93-0.203-1.277-0.585
		C11.845,14.277,11.808,14.25,11.752,14.197z"/>
</g>
</svg>
