<?xml version="1.0" encoding="utf-8"?>
<!-- Generator: Adobe Illustrator 16.0.0, SVG Export Plug-In . SVG Version: 6.00 Build 0)  -->
<!DOCTYPE svg PUBLIC "-//W3C//DTD SVG 1.1//EN" "http://www.w3.org/Graphics/SVG/1.1/DTD/svg11.dtd">
<svg version="1.1" id="Capa_1" xmlns="http://www.w3.org/2000/svg" xmlns:xlink="http://www.w3.org/1999/xlink" x="0px" y="0px"
	 width="23.624px" height="24px" viewBox="0 0 23.624 24" enable-background="new 0 0 23.624 24" xml:space="preserve">
<g>
	<g>
		<g>
			<g>
				<path fill="#B3B3B3" d="M16.929,9.148c-0.369,0.168-0.77,0.279-1.187,0.33c0.425-0.261,0.755-0.668,0.909-1.161
					c-0.4,0.242-0.84,0.415-1.312,0.511c-0.376-0.408-0.911-0.662-1.503-0.662c-1.14,0-2.063,0.938-2.063,2.096
					c0,0.164,0.018,0.326,0.051,0.477c-1.711-0.084-3.229-0.922-4.247-2.188C7.4,8.857,7.299,9.218,7.299,9.604
					c0,0.727,0.363,1.367,0.915,1.744c-0.337-0.011-0.653-0.106-0.933-0.265v0.03c0,1.016,0.709,1.859,1.652,2.053
					c-0.171,0.049-0.354,0.076-0.541,0.076c-0.133,0-0.262-0.016-0.389-0.039c0.261,0.833,1.023,1.44,1.926,1.457
					c-0.703,0.562-1.594,0.896-2.56,0.896c-0.169,0-0.332-0.013-0.494-0.032c0.913,0.598,1.999,0.941,3.161,0.941
					c3.794,0,5.869-3.191,5.869-5.961c0-0.091-0.003-0.182-0.008-0.271C16.303,9.938,16.651,9.568,16.929,9.148z"/>
			</g>
		</g>
	</g>
	<g>
		<path fill="#B3B3B3" d="M11.814,24C5.299,24,0,18.617,0,12S5.299,0,11.814,0c6.512,0,11.81,5.383,11.81,12S18.326,24,11.814,24z
			 M11.814,0.96C5.829,0.96,0.96,5.912,0.96,12c0,6.087,4.869,11.04,10.854,11.04c5.982,0,10.85-4.953,10.85-11.04
			C22.664,5.912,17.797,0.96,11.814,0.96z"/>
	</g>
</g>
</svg>
