<?xml version="1.0" encoding="utf-8"?>
<!-- Generator: Adobe Illustrator 16.0.0, SVG Export Plug-In . SVG Version: 6.00 Build 0)  -->
<!DOCTYPE svg PUBLIC "-//W3C//DTD SVG 1.1//EN" "http://www.w3.org/Graphics/SVG/1.1/DTD/svg11.dtd">
<svg version="1.1" id="Capa_1" xmlns="http://www.w3.org/2000/svg" xmlns:xlink="http://www.w3.org/1999/xlink" x="0px" y="0px"
	 width="23.627px" height="24px" viewBox="0 0 23.627 24" enable-background="new 0 0 23.627 24" xml:space="preserve">
<g>
	<g>
		<path fill="#B3B3B3" d="M11.814,24C5.301,24,0,18.617,0,12S5.301,0,11.814,0s11.812,5.383,11.812,12S18.328,24,11.814,24z
			 M11.814,0.96C5.829,0.96,0.96,5.912,0.96,12c0,6.087,4.869,11.04,10.854,11.04c5.984,0,10.852-4.953,10.852-11.04
			C22.666,5.912,17.799,0.96,11.814,0.96z"/>
	</g>
	<g>
		<g>
			<path fill="#B3B3B3" d="M13.941,12.801l0.249-1.975h-1.923v-1.26c0-0.57,0.158-0.959,0.964-0.959h1.027V6.843
				c-0.18-0.023-0.788-0.077-1.495-0.077c-1.484,0-2.498,0.92-2.498,2.607v1.453H8.589v1.975h1.677v5.061h2.002v-5.061H13.941z"/>
		</g>
	</g>
</g>
</svg>
